# Blender v2.79 (sub 0) OBJ File: ''
# www.blender.org
mtllib empty.mtl
o light.002
v -0.240000 1.980000 -0.220000
v 0.230000 1.980000 0.160000
v -0.240000 1.980000 0.160000
v 0.230000 1.980000 -0.220000
vn 0.0000 -1.0000 0.0000
usemtl None
s off
f 1//1 2//1 3//1
f 1//1 4//1 2//1
o backWall.003
v -0.990000 0.000000 -1.040000
v 1.000000 0.000000 -1.040000
v 1.000000 1.990000 -1.040000
v -1.020000 1.990000 -1.040000
vn 0.0000 -0.0000 1.0000
usemtl backWall.003
s 1
f 5//2 7//2 8//2
f 5//2 6//2 7//2
o ceiling.003
v -1.020000 1.990000 0.990000
v -1.020000 1.990000 -1.040000
v 1.000000 1.990000 -1.040000
v 1.000000 1.990000 0.990000
vn 0.0000 -1.0000 0.0000
usemtl ceiling.003
s 1
f 10//3 12//3 9//3
f 10//3 11//3 12//3
o floor.003
v -1.010000 -0.000000 0.990000
v 1.000000 -0.000000 0.990000
v 1.000000 0.000000 -1.040000
v -0.990000 0.000000 -1.040000
vn 0.0000 1.0000 0.0000
usemtl floor.003
s 1
f 14//4 16//4 13//4
f 14//4 15//4 16//4
