# Blender v2.79 (sub 0) OBJ File: ''
# www.blender.org
mtllib tile2.mtl
o floor.001
v 0.741250 0.000000 -0.786250
v 0.492500 0.000000 -0.786250
v 0.741250 0.000000 -1.040000
v 0.492500 0.000000 -1.040000
v 0.492500 0.000000 -0.532500
v 0.243750 0.000000 -0.532500
v 0.243750 0.000000 -0.786250
v 0.243750 0.000000 -0.278750
v -0.005000 0.000000 -0.278750
v -0.005000 0.000000 -0.532500
v -0.005000 0.000000 -0.786250
v 0.243750 0.000000 -1.040000
v -0.005000 0.000000 -1.040000
v -0.005000 0.000000 -0.025000
v -0.253750 0.000000 -0.025000
v -0.253750 0.000000 -0.278750
v -0.253750 0.000000 -0.532500
v -0.253750 0.000000 -0.786250
v -0.253750 -0.000000 0.228750
v -0.502500 -0.000000 0.228750
v -0.502500 0.000000 -0.025000
v -0.502500 0.000000 -0.278750
v -0.502500 0.000000 -0.532500
v -0.502500 0.000000 -0.786250
v -0.253750 0.000000 -1.040000
v -0.502500 0.000000 -1.040000
v -0.502500 -0.000000 0.482500
v -0.751250 -0.000000 0.482500
v -0.751250 -0.000000 0.228750
v -0.751250 0.000000 -0.025000
v -0.751250 0.000000 -0.278750
v -0.751250 0.000000 -0.532500
v -0.751250 0.000000 -0.786250
v -0.751250 -0.000000 0.736250
v -1.000000 -0.000000 0.736250
v -1.000000 -0.000000 0.482500
v -1.000000 -0.000000 0.228750
v -1.000000 0.000000 -0.025000
v -1.000000 0.000000 -0.278750
v -1.000000 0.000000 -0.532500
v -1.000000 0.000000 -0.786250
v -0.751250 0.000000 -1.040000
v -1.000000 0.000000 -1.040000
v 0.758750 -0.000000 0.990000
v 1.007500 -0.000000 0.736250
v 1.010000 -0.000000 0.990000
v 0.256250 -0.000000 0.990000
v 0.505000 -0.000000 0.736250
v 0.507500 -0.000000 0.990000
v -0.246250 -0.000000 0.990000
v 0.002500 -0.000000 0.736250
v 0.005000 -0.000000 0.990000
v -0.748750 -0.000000 0.990000
v -0.500000 -0.000000 0.736250
v -0.497500 -0.000000 0.990000
v 0.756250 -0.000000 0.736250
v 0.753750 -0.000000 0.482500
v 1.002500 -0.000000 0.228750
v 1.005000 -0.000000 0.482500
v 0.253750 -0.000000 0.736250
v 0.502500 -0.000000 0.482500
v 0.751250 -0.000000 0.228750
v 0.251250 -0.000000 0.482500
v 0.500000 -0.000000 0.228750
v 0.748750 0.000000 -0.025000
v 0.997500 0.000000 -0.278750
v 1.000000 0.000000 -0.025000
v -0.248750 -0.000000 0.736250
v 0.000000 -0.000000 0.482500
v 0.248750 -0.000000 0.228750
v 0.497500 0.000000 -0.025000
v 0.746250 0.000000 -0.278750
v -0.251250 -0.000000 0.482500
v -0.002500 -0.000000 0.228750
v 0.246250 0.000000 -0.025000
v 0.495000 0.000000 -0.278750
v 0.743750 0.000000 -0.532500
v 0.992500 0.000000 -0.786250
v 0.995000 0.000000 -0.532500
vn 0.0000 1.0000 0.0000
usemtl floor.001
s 1
f 1//1 3//1 2//1
f 2//1 3//1 4//1
f 5//1 2//1 6//1
f 6//1 2//1 7//1
f 8//1 6//1 9//1
f 9//1 6//1 10//1
f 7//1 12//1 11//1
f 11//1 12//1 13//1
f 14//1 9//1 15//1
f 15//1 9//1 16//1
f 10//1 11//1 17//1
f 17//1 11//1 18//1
f 19//1 15//1 20//1
f 20//1 15//1 21//1
f 16//1 17//1 22//1
f 22//1 17//1 23//1
f 18//1 25//1 24//1
f 24//1 25//1 26//1
f 27//1 20//1 28//1
f 28//1 20//1 29//1
f 21//1 22//1 30//1
f 30//1 22//1 31//1
f 23//1 24//1 32//1
f 32//1 24//1 33//1
f 34//1 28//1 35//1
f 35//1 28//1 36//1
f 29//1 30//1 37//1
f 37//1 30//1 38//1
f 31//1 32//1 39//1
f 39//1 32//1 40//1
f 33//1 42//1 41//1
f 41//1 42//1 43//1
f 44//1 46//1 45//1
f 47//1 49//1 48//1
f 50//1 52//1 51//1
f 53//1 55//1 54//1
f 44//1 45//1 56//1
f 48//1 56//1 57//1
f 57//1 59//1 58//1
f 47//1 48//1 60//1
f 48//1 57//1 61//1
f 57//1 58//1 62//1
f 51//1 60//1 63//1
f 63//1 61//1 64//1
f 64//1 62//1 65//1
f 65//1 67//1 66//1
f 50//1 51//1 68//1
f 51//1 63//1 69//1
f 63//1 64//1 70//1
f 64//1 65//1 71//1
f 65//1 66//1 72//1
f 54//1 68//1 73//1
f 73//1 69//1 74//1
f 74//1 70//1 75//1
f 75//1 71//1 76//1
f 76//1 72//1 77//1
f 77//1 79//1 78//1
f 53//1 54//1 34//1
f 54//1 73//1 27//1
f 73//1 74//1 19//1
f 74//1 75//1 14//1
f 75//1 76//1 8//1
f 76//1 77//1 5//1
f 77//1 78//1 1//1
